<?xml version="1.0" encoding="UTF-8"?>
<svg id="Capa_2" data-name="Capa 2" xmlns="http://www.w3.org/2000/svg" viewBox="0 0 672.72 287.1">
  <g id="Capa_1-2" data-name="Capa 1">
    <g style="opacity: .58;">
      <path d="M73.62,126.66H30.46c-4.17,0-8.1-.81-11.8-2.42-3.7-1.61-6.93-3.8-9.68-6.55-2.76-2.76-4.94-6.02-6.55-9.78-1.61-3.76-2.42-7.73-2.42-11.9V5.24h16.54v90.76c0,3.9,1.34,7.23,4.03,9.98,2.69,2.76,5.98,4.13,9.88,4.13h43.16v16.54Z" style="fill: #fff; stroke-width: 0px;"/>
      <path d="M169.82,126.66h-17.55v-17.35c-3.63,5.11-8.4,9.28-14.32,12.5-5.92,3.23-12.44,4.84-19.56,4.84s-13.81-1.34-20.07-4.03c-6.25-2.69-11.73-6.39-16.44-11.09-4.71-4.71-8.4-10.19-11.09-16.44-2.69-6.25-4.03-12.94-4.03-20.07s1.34-13.81,4.03-20.07c2.69-6.25,6.38-11.7,11.09-16.34,4.71-4.64,10.18-8.3,16.44-10.99,6.25-2.69,12.94-4.03,20.07-4.03s13.58,1.31,19.76,3.93c6.18,2.62,11.6,6.19,16.24,10.69,4.64,4.51,8.34,9.82,11.09,15.93,2.75,6.12,4.2,12.67,4.34,19.66v52.84ZM118.39,109.11c4.71,0,9.11-.91,13.21-2.72,4.1-1.81,7.7-4.27,10.79-7.36,3.09-3.09,5.51-6.69,7.26-10.79,1.75-4.1,2.62-8.5,2.62-13.21s-.87-9.11-2.62-13.21c-1.75-4.1-4.17-7.7-7.26-10.79-3.09-3.09-6.69-5.51-10.79-7.26-4.1-1.75-8.5-2.62-13.21-2.62s-9.11.88-13.21,2.62c-4.1,1.75-7.7,4.17-10.79,7.26-3.1,3.09-5.55,6.69-7.36,10.79-1.82,4.1-2.72,8.5-2.72,13.21s.91,9.11,2.72,13.21c1.82,4.1,4.27,7.7,7.36,10.79,3.09,3.09,6.69,5.55,10.79,7.36,4.1,1.82,8.5,2.72,13.21,2.72Z" style="fill: #fff; stroke-width: 0px;"/>
      <path d="M189.38,18.35c-2.56,0-4.74-.87-6.55-2.62-1.82-1.75-2.72-3.9-2.72-6.45s.91-4.74,2.72-6.55c1.81-1.81,4-2.72,6.55-2.72,2.42,0,4.54.91,6.35,2.72,1.82,1.81,2.72,4,2.72,6.55s-.91,4.71-2.72,6.45c-1.81,1.75-3.93,2.62-6.35,2.62ZM180.51,126.66V23.6h17.55v103.06h-17.55Z" style="fill: #fff; stroke-width: 0px;"/>
      <path d="M226.29,40.94c3.63-5.11,8.4-9.28,14.32-12.5,5.92-3.23,12.44-4.84,19.56-4.84v17.55c-4.71,0-9.11.88-13.21,2.62-4.1,1.75-7.7,4.17-10.79,7.26-3.1,3.09-5.51,6.69-7.26,10.79-1.75,4.1-2.62,8.5-2.62,13.21v51.63h-17.55V23.6h17.55v17.35Z" style="fill: #fff; stroke-width: 0px;"/>
      <path d="M356.38,126.66h-17.55v-17.35c-3.63,5.11-8.4,9.28-14.32,12.5-5.92,3.23-12.44,4.84-19.56,4.84s-13.81-1.34-20.07-4.03c-6.25-2.69-11.73-6.39-16.44-11.09-4.71-4.71-8.4-10.19-11.09-16.44-2.69-6.25-4.03-12.94-4.03-20.07s1.34-13.81,4.03-20.07c2.69-6.25,6.38-11.7,11.09-16.34,4.71-4.64,10.18-8.3,16.44-10.99,6.25-2.69,12.94-4.03,20.07-4.03s13.58,1.31,19.76,3.93c6.18,2.62,11.6,6.19,16.24,10.69,4.64,4.51,8.34,9.82,11.09,15.93,2.75,6.12,4.2,12.67,4.34,19.66v52.84ZM304.95,109.11c4.71,0,9.11-.91,13.21-2.72,4.1-1.81,7.7-4.27,10.79-7.36,3.09-3.09,5.51-6.69,7.26-10.79,1.75-4.1,2.62-8.5,2.62-13.21s-.87-9.11-2.62-13.21c-1.75-4.1-4.17-7.7-7.26-10.79-3.09-3.09-6.69-5.51-10.79-7.26-4.1-1.75-8.5-2.62-13.21-2.62s-9.11.88-13.21,2.62c-4.1,1.75-7.7,4.17-10.79,7.26-3.1,3.09-5.55,6.69-7.36,10.79-1.82,4.1-2.72,8.5-2.72,13.21s.91,9.11,2.72,13.21c1.82,4.1,4.27,7.7,7.36,10.79,3.09,3.09,6.69,5.55,10.79,7.36,4.1,1.82,8.5,2.72,13.21,2.72Z" style="fill: #fff; stroke-width: 0px;"/>
      <path d="M4.94,287.1v-121.42h44.17c3.76,0,7.29.71,10.59,2.12,3.29,1.41,6.15,3.33,8.57,5.75,2.42,2.42,4.34,5.28,5.75,8.57,1.41,3.3,2.12,6.83,2.12,10.59,0,3.5-.64,6.73-1.92,9.68-1.28,2.96-3.06,5.51-5.34,7.66,6.45,3.09,11.73,7.73,15.83,13.92,4.1,6.19,6.15,13.25,6.15,21.18,0,5.78-1.11,11.23-3.33,16.34-2.22,5.11-5.21,9.55-8.98,13.31s-8.17,6.76-13.21,8.98-10.46,3.33-16.24,3.33H4.94ZM21.48,203.19h27.63c2.82,0,5.28-1.01,7.36-3.03,2.08-2.02,3.13-4.5,3.13-7.46s-1.04-5.44-3.13-7.46c-2.09-2.02-4.54-3.03-7.36-3.03h-27.63v20.97ZM21.48,270.56h27.63c3.5,0,6.79-.67,9.88-2.02,3.09-1.34,5.78-3.16,8.07-5.45,2.28-2.28,4.1-4.97,5.45-8.07,1.34-3.09,2.02-6.39,2.02-9.88s-.68-6.79-2.02-9.88c-1.35-3.09-3.16-5.78-5.45-8.07-2.29-2.28-4.98-4.1-8.07-5.45-3.09-1.34-6.39-2.02-9.88-2.02h-27.63v50.83Z" style="fill: #fff; stroke-width: 0px;"/>
      <path d="M200.17,287.1h-17.55v-17.35c-3.63,5.11-8.4,9.28-14.32,12.5-5.92,3.23-12.44,4.84-19.56,4.84s-13.81-1.34-20.07-4.03c-6.25-2.69-11.73-6.39-16.44-11.09-4.71-4.71-8.4-10.19-11.09-16.44-2.69-6.25-4.03-12.94-4.03-20.07s1.34-13.81,4.03-20.07c2.69-6.25,6.38-11.7,11.09-16.34,4.71-4.64,10.18-8.3,16.44-10.99,6.25-2.69,12.94-4.03,20.07-4.03s13.58,1.31,19.76,3.93c6.18,2.62,11.6,6.19,16.24,10.69,4.64,4.51,8.34,9.82,11.09,15.93,2.75,6.12,4.2,12.67,4.34,19.66v52.84ZM148.74,269.55c4.71,0,9.11-.91,13.21-2.72,4.1-1.81,7.7-4.27,10.79-7.36,3.09-3.09,5.51-6.69,7.26-10.79,1.75-4.1,2.62-8.5,2.62-13.21s-.87-9.11-2.62-13.21c-1.75-4.1-4.17-7.7-7.26-10.79-3.09-3.09-6.69-5.51-10.79-7.26-4.1-1.75-8.5-2.62-13.21-2.62s-9.11.88-13.21,2.62c-4.1,1.75-7.7,4.17-10.79,7.26-3.1,3.09-5.55,6.69-7.36,10.79-1.82,4.1-2.72,8.5-2.72,13.21s.91,9.11,2.72,13.21c1.82,4.1,4.27,7.7,7.36,10.79,3.09,3.09,6.69,5.55,10.79,7.36,4.1,1.82,8.5,2.72,13.21,2.72Z" style="fill: #fff; stroke-width: 0px;"/>
      <path d="M210.46,287.1v-130.49h17.55v130.49h-17.55Z" style="fill: #fff; stroke-width: 0px;"/>
      <path d="M339.34,287.1h-17.55v-17.35c-3.63,5.11-8.4,9.28-14.32,12.5-5.92,3.23-12.44,4.84-19.56,4.84s-13.82-1.34-20.07-4.03c-6.25-2.69-11.73-6.39-16.44-11.09-4.71-4.71-8.4-10.19-11.09-16.44-2.69-6.25-4.03-12.94-4.03-20.07s1.34-13.81,4.03-20.07c2.69-6.25,6.39-11.7,11.09-16.34,4.71-4.64,10.18-8.3,16.44-10.99,6.25-2.69,12.94-4.03,20.07-4.03s13.58,1.31,19.76,3.93c6.18,2.62,11.6,6.19,16.24,10.69,4.64,4.51,8.34,9.82,11.09,15.93,2.75,6.12,4.2,12.67,4.34,19.66v52.84ZM287.91,269.55c4.7,0,9.11-.91,13.21-2.72,4.1-1.81,7.7-4.27,10.79-7.36,3.09-3.09,5.51-6.69,7.26-10.79,1.75-4.1,2.62-8.5,2.62-13.21s-.88-9.11-2.62-13.21c-1.75-4.1-4.17-7.7-7.26-10.79-3.09-3.09-6.69-5.51-10.79-7.26-4.1-1.75-8.51-2.62-13.21-2.62s-9.11.88-13.21,2.62c-4.1,1.75-7.7,4.17-10.79,7.26-3.09,3.09-5.55,6.69-7.36,10.79-1.81,4.1-2.72,8.5-2.72,13.21s.91,9.11,2.72,13.21c1.82,4.1,4.27,7.7,7.36,10.79,3.09,3.09,6.69,5.55,10.79,7.36,4.1,1.82,8.5,2.72,13.21,2.72Z" style="fill: #fff; stroke-width: 0px;"/>
      <path d="M401.25,184.03c7.13,0,13.82,1.35,20.07,4.03,6.25,2.69,11.73,6.35,16.44,10.99,4.7,4.64,8.4,10.08,11.09,16.34,2.69,6.25,4.03,12.94,4.03,20.07v51.63h-17.55v-51.63c0-4.71-.91-9.11-2.72-13.21-1.82-4.1-4.27-7.7-7.36-10.79-3.09-3.09-6.69-5.51-10.79-7.26-4.1-1.75-8.5-2.62-13.21-2.62s-9.11.88-13.21,2.62c-4.1,1.75-7.7,4.17-10.79,7.26-3.1,3.09-5.51,6.69-7.26,10.79-1.75,4.1-2.62,8.5-2.62,13.21v51.63h-17.55v-51.63c0-7.12,1.34-13.81,4.03-20.07,2.69-6.25,6.35-11.7,10.99-16.34,4.64-4.64,10.08-8.3,16.34-10.99,6.25-2.69,12.94-4.03,20.07-4.03Z" style="fill: #fff; stroke-width: 0px;"/>
      <path d="M563.61,243.53c-.94,6.19-2.92,11.93-5.95,17.24-3.03,5.31-6.79,9.92-11.3,13.82-4.51,3.9-9.65,6.96-15.43,9.18-5.78,2.22-11.9,3.33-18.35,3.33-7.13,0-13.81-1.34-20.07-4.03-6.25-2.69-11.7-6.39-16.34-11.09-4.64-4.71-8.3-10.19-10.99-16.44-2.69-6.25-4.03-12.94-4.03-20.07s1.34-13.81,4.03-20.07c2.69-6.25,6.35-11.7,10.99-16.34,4.64-4.64,10.08-8.3,16.34-10.99,6.25-2.69,12.94-4.03,20.07-4.03,6.45,0,12.57,1.11,18.35,3.33,5.78,2.22,10.92,5.28,15.43,9.18,4.5,3.9,8.27,8.5,11.3,13.81,3.03,5.31,5.01,11.06,5.95,17.25h-18.15c-.81-3.76-2.25-7.23-4.34-10.39-2.09-3.16-4.57-5.91-7.46-8.27-2.89-2.35-6.12-4.17-9.68-5.45-3.56-1.28-7.36-1.92-11.4-1.92-4.71,0-9.11.88-13.21,2.62-4.1,1.75-7.7,4.17-10.79,7.26-3.09,3.09-5.51,6.69-7.26,10.79-1.75,4.1-2.62,8.5-2.62,13.21s.87,9.11,2.62,13.21c1.75,4.1,4.17,7.7,7.26,10.79,3.09,3.09,6.69,5.55,10.79,7.36,4.1,1.82,8.5,2.72,13.21,2.72,4.03,0,7.83-.67,11.4-2.02,3.56-1.34,6.79-3.16,9.68-5.45,2.89-2.28,5.38-5.01,7.46-8.17,2.08-3.16,3.53-6.62,4.34-10.39h18.15Z" style="fill: #fff; stroke-width: 0px;"/>
      <path d="M621.29,184.03c6.59,0,12.94,1.28,19.06,3.83,6.12,2.56,11.53,6.09,16.24,10.59,4.71,4.51,8.54,9.78,11.5,15.83,2.96,6.05,4.5,12.5,4.64,19.36v5.85h-84.1c.4,4.31,1.54,8.3,3.43,12,1.88,3.7,4.3,6.89,7.26,9.58,2.96,2.69,6.32,4.77,10.08,6.25,3.76,1.48,7.73,2.22,11.9,2.22,6.72,0,12.71-1.82,17.95-5.45,5.24-3.63,9.08-8.27,11.5-13.92h19.97c-1.61,5.38-3.97,10.32-7.06,14.83-3.09,4.51-6.82,8.4-11.19,11.7-4.37,3.3-9.18,5.85-14.42,7.66-5.25,1.82-10.82,2.72-16.74,2.72-7.13,0-13.81-1.34-20.07-4.03-6.25-2.69-11.73-6.39-16.44-11.09-4.71-4.71-8.4-10.19-11.09-16.44-2.69-6.25-4.03-12.94-4.03-20.07s1.34-13.81,4.03-20.07c2.69-6.25,6.39-11.7,11.09-16.34,4.71-4.64,10.18-8.3,16.44-10.99,6.25-2.69,12.94-4.03,20.07-4.03ZM621.29,201.58c-4.03,0-7.86.67-11.49,2.02-3.63,1.35-6.89,3.19-9.78,5.55-2.89,2.35-5.34,5.14-7.36,8.37-2.02,3.23-3.43,6.79-4.24,10.69h65.75c-.81-3.9-2.22-7.46-4.24-10.69-2.02-3.23-4.47-6.02-7.36-8.37-2.89-2.35-6.15-4.2-9.78-5.55-3.63-1.34-7.46-2.02-11.5-2.02Z" style="fill: #fff; stroke-width: 0px;"/>
    </g>
  </g>
</svg>